<?xml version="1.0" encoding="utf-8"?>
<!-- Generator: Adobe Illustrator 18.1.1, SVG Export Plug-In . SVG Version: 6.00 Build 0)  -->
<svg version="1.1" id="Layer_1" xmlns="http://www.w3.org/2000/svg" xmlns:xlink="http://www.w3.org/1999/xlink" x="0px" y="0px"
	 viewBox="0 0 100 27.7" enable-background="new 0 0 100 27.7" xml:space="preserve">
<g>
	<g>
		<path fill="#00B675" d="M31.6,1.9h-2.2v19.8h3V2.7C32.4,2.3,32,1.9,31.6,1.9"/>
		<path fill="#00B675" d="M42.1,17.9c0,0-1.4,1.5-3.3,1.5c-1.8,0-2.2-1.3-2.2-2.1c0-0.8,0.2-2.1,2.6-2.1c0.4,0,2.9,0,2.9,0V17.9z
			 M39.1,7.1c0,0-2.2-0.1-4.4,0.9v2.6c0,0,1.9-0.9,4.1-0.9c1.4,0,3.3,0.4,3.3,2.9h-3c-3.2,0-5.5,1.5-5.5,4.7c0,2.5,1.6,4.7,4.8,4.7
			c2.5,0,3.7-1.3,3.7-1.3v0.9h3v-9.1C45.1,8.7,42.7,7.1,39.1,7.1"/>
		<path fill="#00B675" d="M21.5,19.4c-2.2,0-3.7-1.8-3.7-4.8c0-3,1.6-4.9,3.7-4.9s3.7,1.8,3.7,4.9C25.2,17.6,23.7,19.4,21.5,19.4
			 M21.5,7.1c-4.8,0-6.8,3.9-6.8,7.5s2,7.5,6.8,7.5c4.8,0,6.8-3.8,6.8-7.5C28.3,10.9,26.3,7.1,21.5,7.1"/>
		<rect x="70.3" y="7.5" fill="#00B675" width="3" height="14.3"/>
		<path fill="#00B675" d="M82.4,19.4c-1.2,0-2.1-0.5-2.1-1.8v-7.5h3.9l-1.1-2.7h-2.8V4.5c0-0.4-0.3-0.7-0.7-0.7h-2.2v3.7h-2.6v2.7
			h2.6v8v0.1c0,1.7,1.1,3.9,4.5,3.9c1.9,0,3.1-0.6,3.6-0.7c-0.2-0.5-0.8-2-0.9-2.3C83.9,19.2,83.2,19.4,82.4,19.4"/>
		<path fill="#00B675" d="M52.5,7.1c-3.6,0-6,1.6-6,5.6v9.1h3v-9.1c0-2.4,1.8-2.9,3.3-2.9c0.5,0,0.9,0,1.3,0.1
			c0.1-0.5,0.1-1,0.2-1.5c0.1-0.4,0.2-0.7,0.3-1.1C53.4,7.1,52.5,7.1,52.5,7.1"/>
		<path fill="#00B675" d="M95.7,7.5l-4.1,10l-4-10h-3L90,21.1l-2.4,5.6h2.5c0.3,0,0.5-0.2,0.7-0.4l7.8-18.8L95.7,7.5L95.7,7.5z"/>
		<path fill="#00B675" d="M58.6,11.8c0-6.9,4.6-7.5,5.7-7.5c1.7,0,2.9,0.5,3.5,0.7c0.1-0.3,1-2.6,1-2.6c-0.3-0.1-2.2-0.9-4.5-0.9
			c-1.7,0-9,0.8-9,10.3s7.1,10.2,9,10.2c2.3,0,4.3-0.8,4.6-0.9v-3c-0.8,0.3-2.4,1.1-4.6,1.1C63.3,19.2,58.6,18.8,58.6,11.8"/>
		<rect x="70.3" y="2.9" fill="#00B675" width="3" height="3"/>
		<path fill="#00B675" d="M7.7,10.3C5.2,9.7,3.9,9.1,3.9,7.4c0-1.3,0.6-2.9,3.7-2.9c1.9,0,3.6,0.6,4.4,0.9c0.1-0.3,1-2.6,1-2.6
			s-2.1-1.2-5.5-1.2c-3.9,0-6.8,2.1-6.8,5.9c0,3.8,2.7,4.9,6,5.6c2.7,0.6,3.8,1.2,3.8,2.9c0,1.6-0.7,3-4.3,3c-3.4,0-5.6-1.3-5.6-1.3
			v3c0.9,0.6,3.2,1.3,5.5,1.3c5.7,0,7.6-3,7.6-6.1C13.7,12.1,11,11,7.7,10.3"/>
	</g>
</g>
</svg>
